<mxfile host="app.diagrams.net" modified="2021-11-02T09:22:41.447Z" agent="5.0 (X11)" etag="LoxXCvppzaAQ_L90EH8D" compressed="false" version="15.5.9" type="device">
  <diagram id="mVgc95ZVTbeBmEKTmLzI" name="Page-1">
    <mxGraphModel dx="237" dy="617" grid="1" gridSize="10" guides="1" tooltips="1" connect="1" arrows="1" fold="1" page="1" pageScale="1" pageWidth="850" pageHeight="1100" math="0" shadow="0">
      <root>
        <mxCell id="0" />
        <mxCell id="1" parent="0" />
        <mxCell id="6_E91xb0524IEVT7t9UL-1" value="Angriffsziel&#xa;Emotions- und Absichtserkennung" style="whiteSpace=wrap;shape=trapezoid;size=0.075;" parent="1" vertex="1">
          <mxGeometry x="2110" y="40" width="224" height="60" as="geometry" />
        </mxCell>
        <mxCell id="6_E91xb0524IEVT7t9UL-2" value="Strafvereitelung" style="verticalAlign=middle;align=center;fillColor=#FFFFFF;gradientColor=none;labelBackgroundColor=none;rounded=1;whiteSpace=wrap;" parent="1" vertex="1">
          <mxGeometry x="2089.5" y="120" width="111" height="48" as="geometry" />
        </mxCell>
        <mxCell id="6_E91xb0524IEVT7t9UL-3" value="Verletzung der Privatsphäre" style="verticalAlign=middle;align=center;fillColor=#FFFFFF;gradientColor=none;labelBackgroundColor=none;rounded=1;whiteSpace=wrap;" parent="1" vertex="1">
          <mxGeometry x="2730" y="120" width="180" height="48" as="geometry" />
        </mxCell>
        <mxCell id="6_E91xb0524IEVT7t9UL-4" value="Individuellen Nutzer nachstellen" style="verticalAlign=middle;align=center;fillColor=#FFFFFF;gradientColor=none;labelBackgroundColor=none;rounded=0;whiteSpace=wrap;" parent="1" vertex="1">
          <mxGeometry x="2610" y="232" width="180" height="48" as="geometry" />
        </mxCell>
        <mxCell id="6_E91xb0524IEVT7t9UL-5" value="Manipulation der Kameras" style="verticalAlign=middle;align=center;fillColor=#FFFFFF;gradientColor=none;labelBackgroundColor=none;rounded=0;whiteSpace=wrap;" parent="1" vertex="1">
          <mxGeometry x="2255.5" y="230" width="180" height="48" as="geometry" />
        </mxCell>
        <mxCell id="6_E91xb0524IEVT7t9UL-6" value="Verfügbarkeit des Datenbestands einschränken" style="verticalAlign=middle;align=center;fillColor=#FFFFFF;gradientColor=none;labelBackgroundColor=none;rounded=0;whiteSpace=wrap;" parent="1" vertex="1">
          <mxGeometry x="2060" y="232" width="170" height="48" as="geometry" />
        </mxCell>
        <mxCell id="6_E91xb0524IEVT7t9UL-9" value="Physische Manipulation" style="verticalAlign=middle;align=center;fillColor=#d7e3bf;gradientColor=none;labelBackgroundColor=none;rounded=0;whiteSpace=wrap;" parent="1" vertex="1">
          <mxGeometry x="2341.04" y="336" width="130" height="35" as="geometry" />
        </mxCell>
        <mxCell id="6_E91xb0524IEVT7t9UL-10" value="Fernsteuerung übernehmen" style="verticalAlign=middle;align=center;fillColor=#d7e3bf;gradientColor=none;labelBackgroundColor=none;rounded=0;whiteSpace=wrap;" parent="1" vertex="1">
          <mxGeometry x="2341.04" y="438" width="130" height="35" as="geometry" />
        </mxCell>
        <mxCell id="6_E91xb0524IEVT7t9UL-11" value="Bildsignal fälschen" style="verticalAlign=middle;align=center;fillColor=#d7e3bf;gradientColor=none;labelBackgroundColor=none;rounded=0;whiteSpace=wrap;" parent="1" vertex="1">
          <mxGeometry x="2341.04" y="388" width="130" height="35" as="geometry" />
        </mxCell>
        <mxCell id="6_E91xb0524IEVT7t9UL-12" value="Steuerungssoftware manipulieren" style="verticalAlign=middle;align=center;fillColor=#d7e3bf;gradientColor=none;labelBackgroundColor=none;rounded=0;whiteSpace=wrap;" parent="1" vertex="1">
          <mxGeometry x="2341.04" y="487" width="130" height="35" as="geometry" />
        </mxCell>
        <mxCell id="6_E91xb0524IEVT7t9UL-13" style="edgeStyle=none;startArrow=none;endArrow=classic;startSize=9;endSize=9;spacingTop=0;spacingBottom=0;spacingLeft=0;spacingRight=0;verticalAlign=middle;labelBackgroundColor=#ffffff;rounded=0;exitX=0.368;exitY=1.017;exitDx=0;exitDy=0;exitPerimeter=0;endFill=1;" parent="1" target="6_E91xb0524IEVT7t9UL-9" edge="1">
          <mxGeometry relative="1" as="geometry">
            <mxPoint x="4" as="offset" />
            <Array as="points">
              <mxPoint x="2318" y="354" />
            </Array>
            <mxPoint x="2317.74" y="278.81600000000003" as="sourcePoint" />
            <mxPoint x="2337.04" y="354" as="targetPoint" />
          </mxGeometry>
        </mxCell>
        <mxCell id="6_E91xb0524IEVT7t9UL-14" style="edgeStyle=none;startArrow=none;endArrow=classic;startSize=9;endSize=9;spacingTop=0;spacingBottom=0;spacingLeft=0;spacingRight=0;verticalAlign=middle;labelBackgroundColor=#ffffff;rounded=0;endFill=1;exitX=0.346;exitY=1.017;exitDx=0;exitDy=0;exitPerimeter=0;" parent="1" source="6_E91xb0524IEVT7t9UL-5" target="6_E91xb0524IEVT7t9UL-12" edge="1">
          <mxGeometry relative="1" as="geometry">
            <mxPoint x="-5" as="offset" />
            <Array as="points">
              <mxPoint x="2318" y="505" />
            </Array>
            <mxPoint x="2330.04" y="280" as="targetPoint" />
          </mxGeometry>
        </mxCell>
        <mxCell id="6_E91xb0524IEVT7t9UL-15" style="edgeStyle=none;startArrow=none;endArrow=classic;startSize=9;endSize=9;spacingTop=0;spacingBottom=0;spacingLeft=0;spacingRight=0;verticalAlign=middle;labelBackgroundColor=#ffffff;rounded=0;entryX=0;entryY=0.5142857142857142;entryDx=0;entryDy=0;entryPerimeter=0;endFill=1;" parent="1" edge="1">
          <mxGeometry relative="1" as="geometry">
            <mxPoint x="4" as="offset" />
            <Array as="points">
              <mxPoint x="2318" y="406" />
            </Array>
            <mxPoint x="2318" y="279" as="sourcePoint" />
            <mxPoint x="2342.04" y="406" as="targetPoint" />
          </mxGeometry>
        </mxCell>
        <mxCell id="6_E91xb0524IEVT7t9UL-16" style="edgeStyle=none;startArrow=none;endArrow=classic;startSize=9;endSize=9;spacingTop=0;spacingBottom=0;spacingLeft=0;spacingRight=0;verticalAlign=middle;labelBackgroundColor=#ffffff;rounded=0;exitX=0.275;exitY=1;exitDx=0;exitDy=0;exitPerimeter=0;entryX=0;entryY=0.434;entryDx=0;entryDy=0;entryPerimeter=0;endFill=1;" parent="1" target="6_E91xb0524IEVT7t9UL-10" edge="1">
          <mxGeometry relative="1" as="geometry">
            <mxPoint x="4" as="offset" />
            <Array as="points">
              <mxPoint x="2318" y="378" />
              <mxPoint x="2318.04" y="453.42999999999995" />
            </Array>
            <mxPoint x="2318.04" y="278" as="sourcePoint" />
            <mxPoint x="2329.04" y="453" as="targetPoint" />
          </mxGeometry>
        </mxCell>
        <mxCell id="6_E91xb0524IEVT7t9UL-17" value="" style="endArrow=classic;rounded=0;" parent="1" source="6_E91xb0524IEVT7t9UL-2" target="6_E91xb0524IEVT7t9UL-5" edge="1">
          <mxGeometry width="50" height="50" relative="1" as="geometry">
            <mxPoint x="1720" y="460" as="sourcePoint" />
            <mxPoint x="1770" y="410" as="targetPoint" />
          </mxGeometry>
        </mxCell>
        <mxCell id="6_E91xb0524IEVT7t9UL-18" value="" style="endArrow=classic;rounded=0;" parent="1" source="6_E91xb0524IEVT7t9UL-3" target="6_E91xb0524IEVT7t9UL-4" edge="1">
          <mxGeometry width="50" height="50" relative="1" as="geometry">
            <mxPoint x="2355.5" y="178" as="sourcePoint" />
            <mxPoint x="2355.5" y="240" as="targetPoint" />
          </mxGeometry>
        </mxCell>
        <mxCell id="6_E91xb0524IEVT7t9UL-19" value="" style="endArrow=classic;rounded=0;" parent="1" source="6_E91xb0524IEVT7t9UL-2" target="6_E91xb0524IEVT7t9UL-6" edge="1">
          <mxGeometry width="50" height="50" relative="1" as="geometry">
            <mxPoint x="2620" y="178" as="sourcePoint" />
            <mxPoint x="2620" y="240" as="targetPoint" />
          </mxGeometry>
        </mxCell>
        <mxCell id="6_E91xb0524IEVT7t9UL-27" value="Daten löschen" style="verticalAlign=middle;align=center;fillColor=#d7e3bf;gradientColor=none;labelBackgroundColor=none;rounded=0;whiteSpace=wrap;" parent="1" vertex="1">
          <mxGeometry x="1990" y="360" width="120" height="35" as="geometry" />
        </mxCell>
        <mxCell id="6_E91xb0524IEVT7t9UL-28" value="(D)DoS" style="verticalAlign=middle;align=center;fillColor=#fee599;gradientColor=none;labelBackgroundColor=none;rounded=0;whiteSpace=wrap;" parent="1" vertex="1">
          <mxGeometry x="2166" y="362" width="120" height="35" as="geometry" />
        </mxCell>
        <mxCell id="6_E91xb0524IEVT7t9UL-29" value="" style="endArrow=classic;rounded=0;" parent="1" source="6_E91xb0524IEVT7t9UL-6" target="6_E91xb0524IEVT7t9UL-27" edge="1">
          <mxGeometry width="50" height="50" relative="1" as="geometry">
            <mxPoint x="2130" y="168" as="sourcePoint" />
            <mxPoint x="2130" y="240" as="targetPoint" />
          </mxGeometry>
        </mxCell>
        <mxCell id="6_E91xb0524IEVT7t9UL-30" value="" style="endArrow=classic;rounded=0;" parent="1" source="6_E91xb0524IEVT7t9UL-6" target="6_E91xb0524IEVT7t9UL-28" edge="1">
          <mxGeometry width="50" height="50" relative="1" as="geometry">
            <mxPoint x="2140" y="178" as="sourcePoint" />
            <mxPoint x="2140" y="250" as="targetPoint" />
          </mxGeometry>
        </mxCell>
        <mxCell id="6_E91xb0524IEVT7t9UL-33" value="Zugriff auf Live-Feed" style="verticalAlign=middle;align=center;fillColor=#FFFFFF;gradientColor=none;labelBackgroundColor=none;rounded=0;whiteSpace=wrap;" parent="1" vertex="1">
          <mxGeometry x="2510" y="360" width="180" height="48" as="geometry" />
        </mxCell>
        <mxCell id="6_E91xb0524IEVT7t9UL-34" value="Zugriff auf Datenbestand (Videomaterial)" style="verticalAlign=middle;align=center;fillColor=#FFFFFF;gradientColor=none;labelBackgroundColor=none;rounded=0;whiteSpace=wrap;" parent="1" vertex="1">
          <mxGeometry x="2720" y="360" width="180" height="48" as="geometry" />
        </mxCell>
        <mxCell id="6_E91xb0524IEVT7t9UL-36" value="" style="endArrow=classic;rounded=0;" parent="1" source="6_E91xb0524IEVT7t9UL-4" target="6_E91xb0524IEVT7t9UL-33" edge="1">
          <mxGeometry width="50" height="50" relative="1" as="geometry">
            <mxPoint x="2620" y="178" as="sourcePoint" />
            <mxPoint x="2620" y="240" as="targetPoint" />
          </mxGeometry>
        </mxCell>
        <mxCell id="6_E91xb0524IEVT7t9UL-37" value="" style="endArrow=classic;rounded=0;" parent="1" source="6_E91xb0524IEVT7t9UL-4" target="6_E91xb0524IEVT7t9UL-34" edge="1">
          <mxGeometry width="50" height="50" relative="1" as="geometry">
            <mxPoint x="2618.153846153846" y="288" as="sourcePoint" />
            <mxPoint x="2611.846153846154" y="370" as="targetPoint" />
          </mxGeometry>
        </mxCell>
        <mxCell id="6_E91xb0524IEVT7t9UL-38" value="Reputationsschaden Betreiber" style="verticalAlign=middle;align=center;fillColor=#FFFFFF;gradientColor=none;labelBackgroundColor=none;rounded=1;whiteSpace=wrap;" parent="1" vertex="1">
          <mxGeometry x="1405" y="120" width="180" height="48" as="geometry" />
        </mxCell>
        <mxCell id="6_E91xb0524IEVT7t9UL-39" value="Falsche Empfehlung an das Reise- und Lebensmanagement weitergeben" style="verticalAlign=middle;align=center;fillColor=#FFFFFF;gradientColor=none;labelBackgroundColor=none;rounded=0;whiteSpace=wrap;" parent="1" vertex="1">
          <mxGeometry x="1390" y="231" width="210" height="68" as="geometry" />
        </mxCell>
        <mxCell id="6_E91xb0524IEVT7t9UL-41" value="" style="endArrow=classic;rounded=0;" parent="1" source="6_E91xb0524IEVT7t9UL-38" target="6_E91xb0524IEVT7t9UL-39" edge="1">
          <mxGeometry width="50" height="50" relative="1" as="geometry">
            <mxPoint x="2088.390909090909" y="178" as="sourcePoint" />
            <mxPoint x="2026.1090909090908" y="240" as="targetPoint" />
          </mxGeometry>
        </mxCell>
        <mxCell id="6_E91xb0524IEVT7t9UL-43" value="KI manipulieren" style="verticalAlign=middle;align=center;fillColor=#FFFFFF;gradientColor=none;labelBackgroundColor=none;rounded=0;whiteSpace=wrap;" parent="1" vertex="1">
          <mxGeometry x="1700" y="361" width="140" height="50" as="geometry" />
        </mxCell>
        <mxCell id="6_E91xb0524IEVT7t9UL-45" value="Datenbestand (Customer-Experience-Werte) manipulieren" style="verticalAlign=middle;align=center;fillColor=#FFFFFF;gradientColor=none;labelBackgroundColor=none;rounded=0;whiteSpace=wrap;" parent="1" vertex="1">
          <mxGeometry x="1272" y="362" width="140" height="50" as="geometry" />
        </mxCell>
        <mxCell id="6_E91xb0524IEVT7t9UL-46" value="" style="endArrow=classic;rounded=0;" parent="1" source="6_E91xb0524IEVT7t9UL-39" target="6_E91xb0524IEVT7t9UL-45" edge="1">
          <mxGeometry width="50" height="50" relative="1" as="geometry">
            <mxPoint x="1727" y="178" as="sourcePoint" />
            <mxPoint x="1727" y="242" as="targetPoint" />
          </mxGeometry>
        </mxCell>
        <mxCell id="6_E91xb0524IEVT7t9UL-47" value="" style="endArrow=classic;rounded=0;" parent="1" source="6_E91xb0524IEVT7t9UL-39" target="6_E91xb0524IEVT7t9UL-59" edge="1">
          <mxGeometry width="50" height="50" relative="1" as="geometry">
            <mxPoint x="1737" y="188" as="sourcePoint" />
            <mxPoint x="1592" y="350" as="targetPoint" />
          </mxGeometry>
        </mxCell>
        <mxCell id="6_E91xb0524IEVT7t9UL-48" value="" style="endArrow=classic;rounded=0;" parent="1" source="6_E91xb0524IEVT7t9UL-39" target="6_E91xb0524IEVT7t9UL-43" edge="1">
          <mxGeometry width="50" height="50" relative="1" as="geometry">
            <mxPoint x="1747" y="198" as="sourcePoint" />
            <mxPoint x="1762" y="430" as="targetPoint" />
          </mxGeometry>
        </mxCell>
        <mxCell id="6_E91xb0524IEVT7t9UL-51" value="Chaos schüren" style="verticalAlign=middle;align=center;fillColor=#FFFFFF;gradientColor=none;labelBackgroundColor=none;rounded=1;whiteSpace=wrap;" parent="1" vertex="1">
          <mxGeometry x="1654.5" y="120" width="111" height="48" as="geometry" />
        </mxCell>
        <mxCell id="6_E91xb0524IEVT7t9UL-52" value="Personal an falsche / unnötige Orte schicken" style="verticalAlign=middle;align=center;fillColor=#FFFFFF;gradientColor=none;labelBackgroundColor=none;rounded=0;whiteSpace=wrap;" parent="1" vertex="1">
          <mxGeometry x="1620" y="232" width="180" height="48" as="geometry" />
        </mxCell>
        <mxCell id="6_E91xb0524IEVT7t9UL-53" value="" style="endArrow=classic;rounded=0;" parent="1" source="6_E91xb0524IEVT7t9UL-52" target="6_E91xb0524IEVT7t9UL-43" edge="1">
          <mxGeometry width="50" height="50" relative="1" as="geometry">
            <mxPoint x="1672" y="490" as="sourcePoint" />
            <mxPoint x="1722" y="440" as="targetPoint" />
          </mxGeometry>
        </mxCell>
        <mxCell id="6_E91xb0524IEVT7t9UL-54" value="Trainingsdaten beeinflussen (Bias)" style="verticalAlign=middle;align=center;fillColor=#d7e3bf;gradientColor=none;labelBackgroundColor=none;rounded=0;whiteSpace=wrap;" parent="1" vertex="1">
          <mxGeometry x="1580" y="480" width="160" height="35" as="geometry" />
        </mxCell>
        <mxCell id="6_E91xb0524IEVT7t9UL-55" value="KI-Modell durch manipuliertes austauschen" style="verticalAlign=middle;align=center;fillColor=#d7e3bf;gradientColor=none;labelBackgroundColor=none;rounded=0;whiteSpace=wrap;" parent="1" vertex="1">
          <mxGeometry x="1780" y="480" width="176" height="35" as="geometry" />
        </mxCell>
        <mxCell id="6_E91xb0524IEVT7t9UL-58" value="" style="endArrow=classic;rounded=0;" parent="1" source="6_E91xb0524IEVT7t9UL-51" target="6_E91xb0524IEVT7t9UL-52" edge="1">
          <mxGeometry width="50" height="50" relative="1" as="geometry">
            <mxPoint x="1332" y="284.9423076923076" as="sourcePoint" />
            <mxPoint x="1692" y="368.71153846153857" as="targetPoint" />
          </mxGeometry>
        </mxCell>
        <mxCell id="6_E91xb0524IEVT7t9UL-59" value="Manipulation der Übertragung" style="verticalAlign=middle;align=center;fillColor=#fee599;gradientColor=none;labelBackgroundColor=none;rounded=0;whiteSpace=wrap;" parent="1" vertex="1">
          <mxGeometry x="1442" y="362" width="224" height="48" as="geometry" />
        </mxCell>
        <mxCell id="6_E91xb0524IEVT7t9UL-60" value="" style="endArrow=classic;rounded=0;" parent="1" source="6_E91xb0524IEVT7t9UL-43" target="6_E91xb0524IEVT7t9UL-54" edge="1">
          <mxGeometry width="50" height="50" relative="1" as="geometry">
            <mxPoint x="1789.6" y="299" as="sourcePoint" />
            <mxPoint x="1769.1875" y="370" as="targetPoint" />
          </mxGeometry>
        </mxCell>
        <mxCell id="6_E91xb0524IEVT7t9UL-61" value="" style="endArrow=classic;rounded=0;" parent="1" source="6_E91xb0524IEVT7t9UL-43" target="6_E91xb0524IEVT7t9UL-55" edge="1">
          <mxGeometry width="50" height="50" relative="1" as="geometry">
            <mxPoint x="1739.6824034334763" y="420" as="sourcePoint" />
            <mxPoint x="1673.6223175965665" y="494" as="targetPoint" />
          </mxGeometry>
        </mxCell>
        <mxCell id="6_E91xb0524IEVT7t9UL-62" value="Übertragung abhören" style="verticalAlign=middle;align=center;fillColor=#fee599;gradientColor=none;labelBackgroundColor=none;rounded=0;whiteSpace=wrap;" parent="1" vertex="1">
          <mxGeometry x="2488" y="480" width="224" height="48" as="geometry" />
        </mxCell>
        <mxCell id="6_E91xb0524IEVT7t9UL-63" value="" style="endArrow=classic;rounded=0;" parent="1" source="6_E91xb0524IEVT7t9UL-33" target="6_E91xb0524IEVT7t9UL-62" edge="1">
          <mxGeometry width="50" height="50" relative="1" as="geometry">
            <mxPoint x="2691.25" y="290" as="sourcePoint" />
            <mxPoint x="2628.75" y="370" as="targetPoint" />
          </mxGeometry>
        </mxCell>
        <mxCell id="6_E91xb0524IEVT7t9UL-64" value="Manipulation des Algorithmus" style="verticalAlign=middle;align=center;fillColor=#FFFFFF;gradientColor=none;labelBackgroundColor=none;rounded=0;whiteSpace=wrap;" parent="1" vertex="1">
          <mxGeometry x="1822" y="232" width="224" height="48" as="geometry" />
        </mxCell>
        <mxCell id="6_E91xb0524IEVT7t9UL-65" value="" style="endArrow=classic;rounded=0;" parent="1" source="6_E91xb0524IEVT7t9UL-2" target="6_E91xb0524IEVT7t9UL-64" edge="1">
          <mxGeometry width="50" height="50" relative="1" as="geometry">
            <mxPoint x="2222.1785714285716" y="178" as="sourcePoint" />
            <mxPoint x="2173.3214285714284" y="242" as="targetPoint" />
          </mxGeometry>
        </mxCell>
        <mxCell id="6_E91xb0524IEVT7t9UL-66" value="" style="endArrow=classic;rounded=0;" parent="1" source="6_E91xb0524IEVT7t9UL-64" target="6_E91xb0524IEVT7t9UL-43" edge="1">
          <mxGeometry width="50" height="50" relative="1" as="geometry">
            <mxPoint x="2232.1785714285716" y="188" as="sourcePoint" />
            <mxPoint x="2183.3214285714284" y="252" as="targetPoint" />
          </mxGeometry>
        </mxCell>
        <mxCell id="6_E91xb0524IEVT7t9UL-67" value="" style="endArrow=classic;rounded=0;" parent="1" source="6_E91xb0524IEVT7t9UL-51" target="6_E91xb0524IEVT7t9UL-39" edge="1">
          <mxGeometry width="50" height="50" relative="1" as="geometry">
            <mxPoint x="1601.5254237288136" y="309" as="sourcePoint" />
            <mxPoint x="1770" y="368.3432835820895" as="targetPoint" />
          </mxGeometry>
        </mxCell>
        <mxCell id="6_E91xb0524IEVT7t9UL-68" value="" style="endArrow=classic;rounded=0;" parent="1" source="6_E91xb0524IEVT7t9UL-52" target="6_E91xb0524IEVT7t9UL-59" edge="1">
          <mxGeometry width="50" height="50" relative="1" as="geometry">
            <mxPoint x="1731.0769230769229" y="290" as="sourcePoint" />
            <mxPoint x="1768.4615384615386" y="371" as="targetPoint" />
          </mxGeometry>
        </mxCell>
        <mxCell id="6_E91xb0524IEVT7t9UL-70" value="Einfügen und Ausnutzen von Backdoors" style="verticalAlign=middle;align=center;fillColor=#d7e3bf;gradientColor=none;labelBackgroundColor=none;rounded=0;whiteSpace=wrap;" parent="1" vertex="1">
          <mxGeometry x="1350" y="480" width="188" height="40" as="geometry" />
        </mxCell>
        <mxCell id="6_E91xb0524IEVT7t9UL-71" value="Malware einschleusen" style="verticalAlign=middle;align=center;fillColor=#d7e3bf;gradientColor=none;labelBackgroundColor=none;rounded=0;whiteSpace=wrap;" parent="1" vertex="1">
          <mxGeometry x="1170" y="480" width="144" height="35" as="geometry" />
        </mxCell>
        <mxCell id="6_E91xb0524IEVT7t9UL-72" value="Einfügen und Ausnutzen von Backdoors" style="verticalAlign=middle;align=center;fillColor=#d7e3bf;gradientColor=none;labelBackgroundColor=none;rounded=0;whiteSpace=wrap;" parent="1" vertex="1">
          <mxGeometry x="2881" y="480" width="188" height="40" as="geometry" />
        </mxCell>
        <mxCell id="6_E91xb0524IEVT7t9UL-73" value="Malware einschleusen" style="verticalAlign=middle;align=center;fillColor=#d7e3bf;gradientColor=none;labelBackgroundColor=none;rounded=0;whiteSpace=wrap;" parent="1" vertex="1">
          <mxGeometry x="2730" y="480" width="144" height="35" as="geometry" />
        </mxCell>
        <mxCell id="6_E91xb0524IEVT7t9UL-74" value="" style="endArrow=classic;rounded=0;" parent="1" source="6_E91xb0524IEVT7t9UL-34" target="6_E91xb0524IEVT7t9UL-73" edge="1">
          <mxGeometry width="50" height="50" relative="1" as="geometry">
            <mxPoint x="2610" y="418" as="sourcePoint" />
            <mxPoint x="2610" y="481" as="targetPoint" />
          </mxGeometry>
        </mxCell>
        <mxCell id="6_E91xb0524IEVT7t9UL-75" value="" style="endArrow=classic;rounded=0;" parent="1" source="6_E91xb0524IEVT7t9UL-34" target="6_E91xb0524IEVT7t9UL-72" edge="1">
          <mxGeometry width="50" height="50" relative="1" as="geometry">
            <mxPoint x="2620" y="428" as="sourcePoint" />
            <mxPoint x="2620" y="491" as="targetPoint" />
          </mxGeometry>
        </mxCell>
        <mxCell id="6_E91xb0524IEVT7t9UL-76" value="" style="endArrow=classic;rounded=0;" parent="1" source="6_E91xb0524IEVT7t9UL-45" target="6_E91xb0524IEVT7t9UL-71" edge="1">
          <mxGeometry width="50" height="50" relative="1" as="geometry">
            <mxPoint x="1462.3606557377047" y="309" as="sourcePoint" />
            <mxPoint x="1383.3524590163934" y="372" as="targetPoint" />
          </mxGeometry>
        </mxCell>
        <mxCell id="6_E91xb0524IEVT7t9UL-77" value="" style="endArrow=classic;rounded=0;" parent="1" source="6_E91xb0524IEVT7t9UL-45" target="6_E91xb0524IEVT7t9UL-70" edge="1">
          <mxGeometry width="50" height="50" relative="1" as="geometry">
            <mxPoint x="1472.3606557377047" y="319" as="sourcePoint" />
            <mxPoint x="1393.3524590163934" y="382" as="targetPoint" />
          </mxGeometry>
        </mxCell>
        <mxCell id="6_E91xb0524IEVT7t9UL-78" value="Individuellen Nutzer bloßstellen (shaming) / Veröffentlichen von individuellem Verhalten" style="verticalAlign=middle;align=center;fillColor=#FFFFFF;gradientColor=none;labelBackgroundColor=none;rounded=0;whiteSpace=wrap;" parent="1" vertex="1">
          <mxGeometry x="2850" y="231" width="230" height="59" as="geometry" />
        </mxCell>
        <mxCell id="6_E91xb0524IEVT7t9UL-79" value="" style="endArrow=classic;rounded=0;" parent="1" source="6_E91xb0524IEVT7t9UL-3" target="6_E91xb0524IEVT7t9UL-78" edge="1">
          <mxGeometry width="50" height="50" relative="1" as="geometry">
            <mxPoint x="2710" y="178" as="sourcePoint" />
            <mxPoint x="2710" y="242" as="targetPoint" />
          </mxGeometry>
        </mxCell>
        <mxCell id="6_E91xb0524IEVT7t9UL-87" value="" style="endArrow=classic;rounded=0;" parent="1" source="6_E91xb0524IEVT7t9UL-78" target="6_E91xb0524IEVT7t9UL-33" edge="1">
          <mxGeometry width="50" height="50" relative="1" as="geometry">
            <mxPoint x="2730.625" y="290" as="sourcePoint" />
            <mxPoint x="2799.375" y="370" as="targetPoint" />
          </mxGeometry>
        </mxCell>
        <mxCell id="6_E91xb0524IEVT7t9UL-89" value="Individuum identifizieren" style="verticalAlign=middle;align=center;fillColor=#FFFFFF;gradientColor=none;labelBackgroundColor=none;rounded=0;whiteSpace=wrap;" parent="1" vertex="1">
          <mxGeometry x="2960" y="362" width="180" height="48" as="geometry" />
        </mxCell>
        <mxCell id="6_E91xb0524IEVT7t9UL-90" value="" style="shape=or;whiteSpace=wrap;rotation=-90;" parent="1" vertex="1">
          <mxGeometry x="2930" y="299" width="30" height="40" as="geometry" />
        </mxCell>
        <mxCell id="6_E91xb0524IEVT7t9UL-92" value="" style="endArrow=classic;rounded=0;exitX=0;exitY=0.75;exitDx=0;exitDy=0;exitPerimeter=0;" parent="1" source="6_E91xb0524IEVT7t9UL-90" target="6_E91xb0524IEVT7t9UL-89" edge="1">
          <mxGeometry width="50" height="50" relative="1" as="geometry">
            <mxPoint x="2887.813765182186" y="300" as="sourcePoint" />
            <mxPoint x="2680.931174089069" y="370" as="targetPoint" />
          </mxGeometry>
        </mxCell>
        <mxCell id="6_E91xb0524IEVT7t9UL-93" value="" style="endArrow=classic;rounded=0;exitX=0;exitY=0.25;exitDx=0;exitDy=0;exitPerimeter=0;" parent="1" source="6_E91xb0524IEVT7t9UL-90" target="6_E91xb0524IEVT7t9UL-34" edge="1">
          <mxGeometry width="50" height="50" relative="1" as="geometry">
            <mxPoint x="2897.813765182186" y="310" as="sourcePoint" />
            <mxPoint x="2690.931174089069" y="380" as="targetPoint" />
          </mxGeometry>
        </mxCell>
        <mxCell id="6_E91xb0524IEVT7t9UL-94" value="" style="endArrow=classic;rounded=0;entryX=1;entryY=0.5;entryDx=0;entryDy=0;entryPerimeter=0;" parent="1" source="6_E91xb0524IEVT7t9UL-78" target="6_E91xb0524IEVT7t9UL-90" edge="1">
          <mxGeometry width="50" height="50" relative="1" as="geometry">
            <mxPoint x="2907.813765182186" y="320" as="sourcePoint" />
            <mxPoint x="2700.931174089069" y="390" as="targetPoint" />
          </mxGeometry>
        </mxCell>
        <mxCell id="6_E91xb0524IEVT7t9UL-97" value="Personenidentifizierung ausnutzen&#xa;(siehe Personenidentifizierung)" style="verticalAlign=middle;align=center;fillColor=#fee599;gradientColor=none;labelBackgroundColor=none;rounded=0;whiteSpace=wrap;" parent="1" vertex="1">
          <mxGeometry x="3080" y="480" width="224" height="48" as="geometry" />
        </mxCell>
        <mxCell id="6_E91xb0524IEVT7t9UL-98" value="" style="endArrow=classic;rounded=0;" parent="1" source="6_E91xb0524IEVT7t9UL-89" target="6_E91xb0524IEVT7t9UL-97" edge="1">
          <mxGeometry width="50" height="50" relative="1" as="geometry">
            <mxPoint x="2965" y="344" as="sourcePoint" />
            <mxPoint x="3016.153846153846" y="372" as="targetPoint" />
          </mxGeometry>
        </mxCell>
        <mxCell id="6_E91xb0524IEVT7t9UL-100" value="Mit Öffentliche Daten / Medien / Sozialen Netzwerken / Daten Dritter abgleichen bzw. korrelieren" style="verticalAlign=middle;align=center;fillColor=#d7e3bf;gradientColor=none;labelBackgroundColor=none;rounded=0;whiteSpace=wrap;" parent="1" vertex="1">
          <mxGeometry x="3320" y="480" width="188" height="50" as="geometry" />
        </mxCell>
        <mxCell id="6_E91xb0524IEVT7t9UL-101" value="" style="endArrow=classic;rounded=0;" parent="1" source="6_E91xb0524IEVT7t9UL-89" target="6_E91xb0524IEVT7t9UL-100" edge="1">
          <mxGeometry width="50" height="50" relative="1" as="geometry">
            <mxPoint x="3088.8813559322034" y="420" as="sourcePoint" />
            <mxPoint x="3173.1186440677966" y="490" as="targetPoint" />
          </mxGeometry>
        </mxCell>
      </root>
    </mxGraphModel>
  </diagram>
</mxfile>
